<svg xmlns="http://www.w3.org/2000/svg" version="1.1" xmlns:xlink="http://www.w3.org/1999/xlink" width="1000" height="1000"><g clip-path="url(#SvgjsClipPath1124)"><rect width="1000" height="1000" fill="#ffffff"></rect><g transform="matrix(41.666666666666664,0,0,41.666666666666664,0,0)"><svg xmlns="http://www.w3.org/2000/svg" version="1.1" xmlns:xlink="http://www.w3.org/1999/xlink" width="24" height="24"><svg viewBox="0 0 24 24" fill="none" xmlns="http://www.w3.org/2000/svg">
  <!-- Escudo -->
  <path d="M12 21C12 21 4 20 4 12V4C4 4 8 3 12 5C16 3 20 4 20 4V12C20 20 12 21 12 21Z" stroke="#1e1b4b" stroke-width="2" stroke-linecap="round" stroke-linejoin="round"></path>
  <!-- Línea central -->
  <path d="M12 5V21" stroke="#1e1b4b" stroke-width="2" stroke-linecap="round" stroke-linejoin="round"></path>
  <!-- Líneas del libro (con opacidad para que no se vea saturado) -->
  <path d="M6 9C6 9 9 8 12 9" stroke="#1e1b4b" stroke-width="1.5" stroke-opacity="0.5" stroke-linecap="round"></path>
  <path d="M6 13C6 13 9 12 12 13" stroke="#1e1b4b" stroke-width="1.5" stroke-opacity="0.5" stroke-linecap="round"></path>
  <path d="M18 9C18 9 15 8 12 9" stroke="#1e1b4b" stroke-width="1.5" stroke-opacity="0.5" stroke-linecap="round"></path>
  <path d="M18 13C18 13 15 12 12 13" stroke="#1e1b4b" stroke-width="1.5" stroke-opacity="0.5" stroke-linecap="round"></path>
</svg></svg></g></g><defs><clipPath id="SvgjsClipPath1124"><rect width="1000" height="1000" x="0" y="0" rx="500" ry="500"></rect></clipPath></defs></svg>